<svg width="450" height="333" viewBox="0 0 450 333" fill="none" xmlns="http://www.w3.org/2000/svg">
<path d="M376.589 273.869C376.798 281.744 373.081 289.456 367.039 294.51C366.289 295.135 364.327 296.219 363.877 296.81C363.627 297.14 363.106 299.99 362.81 300.76C358.16 312.923 343.527 314.877 333.681 307.952C330.198 311.198 325.91 313.423 321.21 314.131C309.319 315.931 298.135 308.298 295.494 296.519C295.331 295.794 295.135 293.498 294.889 293.069C294.598 292.556 293.773 291.84 293.356 291.281C282.314 276.327 288.002 256.035 305.923 249.969C311.548 228.206 338.223 223.21 352.394 240.185C355.16 243.498 357.027 247.635 357.973 251.81C368.564 253.769 376.302 263.198 376.585 273.869H376.589Z" fill="white"/>
<path d="M367.04 285.052C366.29 285.677 364.327 286.76 363.877 287.352C363.627 287.681 363.107 290.531 362.811 291.302C358.161 303.464 343.527 305.419 333.682 298.494C330.198 301.739 325.911 303.964 321.215 304.673C309.323 306.473 298.14 298.839 295.498 287.06C295.336 286.335 295.14 284.039 294.894 283.61C294.603 283.098 293.777 282.381 293.361 281.823C290.611 278.098 288.898 274.039 288.157 269.952C286.869 276.977 288.469 284.652 293.361 291.285C293.773 291.844 294.598 292.564 294.894 293.073C295.14 293.502 295.336 295.798 295.498 296.523C298.14 308.302 309.323 315.935 321.215 314.135C325.915 313.423 330.202 311.202 333.682 307.956C343.523 314.877 358.157 312.927 362.811 300.764C363.107 299.994 363.627 297.144 363.877 296.814C364.327 296.223 366.29 295.144 367.04 294.514C373.082 289.46 376.798 281.748 376.59 273.873C376.552 272.494 376.39 271.139 376.115 269.814C374.944 275.706 371.682 281.164 367.04 285.052Z" fill="#F2F0F0"/>
<path d="M288.007 243.81C280.173 237.444 289.865 225.49 297.773 231.823C305.603 238.094 296.002 250.31 288.007 243.81Z" fill="white"/>
<path d="M374.062 311.01C367.079 304.727 376.266 294.002 383.312 299.36C391.987 305.956 381.504 317.706 374.062 311.01Z" fill="white"/>
<path d="M374.061 309.127C372.603 307.815 371.857 306.311 371.645 304.798C371.353 306.902 371.995 309.152 374.061 311.01C379.807 316.181 387.37 310.352 386.516 304.39C385.782 309.585 379.195 313.752 374.061 309.127Z" fill="#F2F0F0"/>
<path d="M306.312 223.51C298.791 218.198 307.812 208.002 313.941 213.994C319.32 219.256 312.003 227.527 306.312 223.51Z" fill="white"/>
<path d="M288.007 241.927C286.282 240.527 285.407 238.852 285.173 237.165C284.873 239.452 285.636 241.886 288.007 243.811C294.232 248.869 301.428 242.59 300.619 236.598C299.928 241.898 293.582 246.456 288.007 241.927Z" fill="#F2F0F0"/>
<path d="M306.311 221.627C304.644 220.452 303.794 219.035 303.54 217.61C303.198 219.619 303.906 221.814 306.311 223.51C310.906 226.756 316.561 221.981 315.731 217.252C315.061 221.231 310.29 224.435 306.311 221.627Z" fill="#F2F0F0"/>
<path d="M352.12 184.244C348.878 188.144 344.687 191.515 339.987 193.532C315.903 203.857 290.407 184.261 296.145 158.249C280.47 142.219 285.353 117.732 305.045 107.861C305.782 107.49 307.041 107.178 307.624 106.794C308.112 106.474 309.553 104.153 310.112 103.474C319.228 92.4485 335.141 90.3902 346.737 98.6735C351.32 101.949 354.653 106.599 356.591 111.894C370.703 109.865 385.116 119.782 383.499 135.132C383.395 136.103 382.42 139.394 382.507 139.878C382.666 140.744 384.157 142.94 384.616 144.003C388.287 152.586 388.07 162.728 383.624 170.936C377.599 182.057 364.362 187.861 352.12 184.244Z" fill="white"/>
<path d="M384.61 144.003C384.156 142.936 382.66 140.74 382.502 139.878C382.414 139.399 383.394 136.107 383.494 135.132C384.306 127.424 381.073 121.086 375.864 116.944C377.418 120.149 378.139 123.865 377.71 127.974C377.606 128.944 376.631 132.236 376.719 132.719C376.877 133.586 378.368 135.782 378.827 136.844C382.498 145.428 382.281 155.569 377.835 163.778C371.81 174.899 358.573 180.703 346.331 177.086C343.089 180.986 338.898 184.357 334.198 186.374C321.352 191.882 308.106 188.874 299.41 180.924C306.956 193.89 323.789 200.474 339.981 193.532C344.681 191.515 348.873 188.149 352.114 184.244C364.356 187.861 377.589 182.057 383.618 170.936C388.064 162.728 388.277 152.586 384.61 144.003Z" fill="#F2F0F0"/>
<path d="M287.839 106.703C276.081 109.149 272.26 91.3154 283.956 88.7945C295.898 86.2195 299.477 104.282 287.839 106.703Z" fill="white"/>
<path d="M287.84 103.503C281.715 104.778 277.744 100.549 276.998 95.8447C276.057 101.553 280.327 108.261 287.84 106.703C293.444 105.536 295.519 100.749 294.832 96.378C294.302 99.6572 292.082 102.62 287.84 103.503Z" fill="#F2F0F0"/>
<path d="M378.363 105.428C368.042 107.303 364.096 91.0442 374.846 88.1567C386.301 85.0776 391.071 103.119 378.363 105.428Z" fill="white"/>
<path d="M378.363 102.228C372.972 103.207 369.326 99.236 368.601 94.811C367.676 100.253 371.68 106.644 378.363 105.428C384.426 104.324 386.509 99.6444 385.788 95.3819C385.226 98.5527 382.917 101.399 378.363 102.228Z" fill="#F2F0F0"/>
<path d="M271.619 131.894C261.927 134.936 257.873 119.319 268.669 117.748C276.84 116.557 280.127 129.227 271.619 131.894Z" fill="white"/>
<path d="M271.619 128.694C266.669 130.248 263.19 126.932 262.411 123.103C261.377 127.919 265.298 133.878 271.619 131.894C275.782 130.59 277.115 126.89 276.44 123.594C275.965 125.815 274.448 127.807 271.619 128.694Z" fill="#F2F0F0"/>
<path d="M374.467 208.144C364.775 211.186 360.721 195.569 371.517 193.998C379.688 192.807 382.975 205.477 374.467 208.144Z" fill="white"/>
<path d="M374.467 204.944C369.517 206.498 366.038 203.182 365.258 199.353C364.225 204.169 368.146 210.128 374.467 208.144C378.629 206.84 379.963 203.14 379.288 199.844C378.813 202.065 377.296 204.057 374.467 204.944Z" fill="#F2F0F0"/>
<path d="M144.334 295.069C125.68 289.282 110.534 274.402 103.48 256.186C102.605 253.927 101.634 248.452 100.605 246.927C100.034 246.082 93.7551 242.582 92.1801 241.273C67.3301 220.657 74.4134 184.74 98.5134 167.144C93.6676 156.382 91.8676 144.54 93.9426 132.94C99.1967 103.586 126.034 83.4107 155.801 86.594C157.63 86.7899 163.176 88.1607 164.38 87.9274C165.813 87.6524 168.159 86.2815 169.801 85.7565C213.718 71.7565 256.826 101.282 256.784 148.198C303.401 178.757 293.863 245.373 242.709 265.111C232.722 268.965 221.522 270.044 210.963 268.94C197.922 292.248 169.613 302.902 144.334 295.057V295.069Z" fill="white"/>
<path d="M285.442 188.719C283.871 213.165 268.45 236.785 241.346 247.244C231.359 251.098 220.159 252.177 209.6 251.073C196.559 274.381 168.25 285.035 142.971 277.19C124.317 271.402 109.171 256.523 102.117 238.306C101.242 236.048 100.271 230.573 99.2419 229.048C98.6711 228.202 92.3919 224.702 90.8169 223.394C83.7419 217.527 79.2627 210.419 77.0169 202.848C75.2627 216.673 79.6836 230.906 92.1752 241.273C93.7502 242.577 100.025 246.077 100.6 246.927C101.629 248.452 102.6 253.927 103.475 256.185C110.525 274.398 125.675 289.281 144.329 295.069C169.609 302.915 197.917 292.26 210.959 268.952C221.513 270.056 232.717 268.973 242.704 265.123C276.434 252.11 292.063 218.719 285.442 188.719Z" fill="#F2F0F0"/>
<path d="M147.119 22.1565C168.31 8.83982 188.656 41.1232 167.477 54.6482C146.514 68.0357 125.477 35.7565 147.119 22.1565Z" fill="white"/>
<path d="M167.476 49.9396C153.639 58.7771 139.772 47.7146 138.168 35.2646C136.301 49.3438 151.905 64.5938 167.476 54.648C174.693 50.0397 177.085 43.2522 176.268 36.8355C175.63 41.7147 172.939 46.4521 167.476 49.9396Z" fill="#F2F0F0"/>
<path d="M36.476 158.29C56.7969 146.907 74.651 177.019 56.4552 189.294C34.0469 204.407 14.8219 170.419 36.476 158.29Z" fill="white"/>
<path d="M56.4557 184.59C41.9057 194.403 28.7057 183.515 27.1557 171.353C25.3307 185.086 40.0348 200.373 56.4557 189.298C62.589 185.161 64.6223 178.998 63.8515 173.082C63.2598 177.411 60.964 181.548 56.4557 184.59Z" fill="#F2F0F0"/>
<path d="M222.185 285.715C240.652 272.294 257.402 301.603 238.448 311.211C221.806 319.648 208.214 295.873 222.185 285.715Z" fill="white"/>
<path d="M238.447 307.444C227.393 313.048 217.689 304.436 216.51 295.048C215.118 305.657 225.918 317.561 238.447 311.211C245.114 307.832 247.36 302.011 246.672 296.473C246.118 300.752 243.61 304.828 238.447 307.444Z" fill="#F2F0F0"/>
</svg>
