<svg width="188" height="43" viewBox="0 0 188 43" fill="none" xmlns="http://www.w3.org/2000/svg">
<path d="M166.835 0.521484H21.0015C9.49561 0.521484 0.168213 9.84889 0.168213 21.3548C0.168213 32.8608 9.49561 42.1882 21.0015 42.1882H166.835C178.341 42.1882 187.668 32.8608 187.668 21.3548C187.668 9.84889 178.341 0.521484 166.835 0.521484Z" fill="#02B14F"/>
<path d="M40.8211 18.205C39.5169 18.205 38.6919 18.8717 38.6919 19.7759C38.6877 20.7925 39.7919 21.1801 40.6211 21.3926L41.6586 21.6634C43.0044 21.9967 44.7128 22.7342 44.7128 24.6467C44.7128 26.4467 43.2794 27.7551 40.7836 27.7551C38.2878 27.7551 36.9169 26.5675 36.8127 24.6467H38.417C38.5086 25.8009 39.5377 26.3509 40.7711 26.3509C42.1336 26.3509 43.1253 25.6676 43.1253 24.6301C43.1253 23.6884 42.2503 23.3134 41.1128 23.0134L39.8586 22.6717C38.1544 22.2092 37.0961 21.3467 37.0961 19.8675C37.0961 18.0384 38.7294 16.8218 40.8586 16.8218C42.9878 16.8218 44.517 18.055 44.5628 19.755H43.0169C42.9044 18.7759 42.0377 18.205 40.8211 18.205Z" fill="white"/>
<path d="M48.0366 27.5759H46.4866V16.9634H48.0157V20.9134H48.1157C48.4907 20.055 49.2365 19.5134 50.474 19.5134C52.1115 19.5134 53.1991 20.5301 53.1991 22.5134V27.5759H51.6491V22.7009C51.6491 21.5342 51.0115 20.8551 49.9449 20.8551C48.8782 20.8551 48.0366 21.5801 48.0366 22.8509V27.5759Z" fill="white"/>
<path d="M54.897 25.3301C54.897 23.5218 56.4429 23.1259 57.947 22.9509C59.3762 22.7843 59.9595 22.7968 59.9595 22.2301V22.1926C59.9595 21.2926 59.447 20.7676 58.447 20.7676C57.447 20.7676 56.8262 21.3134 56.597 21.8759L55.1387 21.5426C55.6554 20.0926 56.9845 19.5093 58.422 19.5093C59.6845 19.5093 61.5095 19.9717 61.5095 22.2884V27.5717H59.997V26.4843H59.9345C59.6386 27.0801 58.897 27.7468 57.5804 27.7468C56.0679 27.7468 54.8928 26.8884 54.8928 25.3218L54.897 25.3301ZM59.9637 24.7093V23.6843C59.7387 23.9051 58.547 24.0426 58.047 24.1093C57.1512 24.2301 56.4137 24.526 56.4137 25.351C56.4137 26.1176 57.047 26.5134 57.922 26.5134C59.2137 26.5134 59.9637 25.6551 59.9637 24.7093Z" fill="white"/>
<path d="M63.5706 19.6174H65.0664V20.8799H65.1497C65.4414 20.0258 66.2372 19.4966 67.1706 19.4966C67.3664 19.4966 67.6747 19.5132 67.8289 19.534V21.0174C67.7039 20.9799 67.3414 20.9257 67.0205 20.9257C65.9205 20.9257 65.1205 21.6757 65.1205 22.7174V27.5799H63.5706V19.6216V19.6174Z" fill="white"/>
<path d="M68.5256 23.6509C68.5256 21.205 69.9881 19.5176 72.2048 19.5176C74.0089 19.5176 75.7298 20.6425 75.7298 23.5175V24.0675H70.0715C70.1131 25.6009 71.0048 26.4634 72.3298 26.4634C73.2089 26.4634 73.8839 26.0801 74.1631 25.3301L75.6298 25.5925C75.2756 26.8883 74.0506 27.7426 72.3131 27.7426C69.9673 27.7426 68.5256 26.1259 68.5256 23.655V23.6509ZM74.2089 22.905C74.2048 21.6884 73.4173 20.7967 72.2131 20.7967C71.009 20.7967 70.134 21.7759 70.0715 22.905H74.2048H74.2089Z" fill="white"/>
<path d="M85.0258 20.8634H83.3924V25.2426C83.3924 26.1384 83.8425 26.305 84.3466 26.305C84.5966 26.305 84.7883 26.2592 84.8924 26.2384L85.1716 27.5176C84.9883 27.5842 84.6591 27.68 84.1674 27.6842C82.9466 27.7092 81.8425 27.0092 81.8466 25.5634V20.8634H80.6799V19.6217H81.8466V17.7134H83.3966V19.6217H85.03V20.8634H85.0258Z" fill="white"/>
<path d="M88.4467 27.5759H86.8967V16.9634H88.4259V20.9134H88.5259C88.9009 20.055 89.6467 19.5134 90.8842 19.5134C92.5217 19.5134 93.6092 20.5301 93.6092 22.5134V27.5759H92.0592V22.7009C92.0592 21.5342 91.4217 20.8551 90.355 20.8551C89.2884 20.8551 88.4467 21.5801 88.4467 22.8509V27.5759Z" fill="white"/>
<path d="M95.4788 17.4677C95.4788 16.9594 95.9204 16.5386 96.4579 16.5386C96.9954 16.5386 97.4371 16.9594 97.4371 17.4677C97.4371 17.9761 96.9912 18.3885 96.4579 18.3885C95.9246 18.3885 95.4788 17.9719 95.4788 17.4677ZM95.6746 19.6178H97.2246V27.5761H95.6746V19.6178Z" fill="white"/>
<path d="M103.868 21.809C103.685 21.2757 103.243 20.7423 102.276 20.7423C101.397 20.7423 100.73 21.1757 100.739 21.7882C100.735 22.3257 101.114 22.6215 101.989 22.8298L103.251 23.1215C104.714 23.459 105.426 24.1548 105.426 25.2756C105.426 26.7173 104.093 27.7382 102.172 27.7382C100.385 27.7382 99.2137 26.9465 98.9553 25.534L100.451 25.3048C100.639 26.0881 101.235 26.4882 102.16 26.4882C103.176 26.4882 103.835 26.0048 103.835 25.3881C103.835 24.8923 103.476 24.5507 102.709 24.3798L101.364 24.084C99.872 23.7507 99.1887 23.0006 99.1887 21.8715C99.1887 20.4631 100.464 19.5132 102.26 19.5132C104.055 19.5132 104.947 20.3215 105.272 21.559L103.868 21.809Z" fill="white"/>
<path d="M110.623 23.6509C110.623 21.205 112.086 19.5176 114.302 19.5176C116.107 19.5176 117.827 20.6425 117.827 23.5175V24.0675H112.169C112.211 25.6009 113.102 26.4634 114.427 26.4634C115.307 26.4634 115.982 26.0801 116.261 25.3301L117.727 25.5925C117.373 26.8883 116.148 27.7426 114.411 27.7426C112.065 27.7426 110.623 26.1259 110.623 23.655V23.6509ZM116.307 22.905C116.302 21.6884 115.515 20.7967 114.311 20.7967C113.107 20.7967 112.232 21.7759 112.169 22.905H116.302H116.307Z" fill="white"/>
<path d="M123.338 20.8634H121.621V27.58H120.067V20.8634H118.838V19.6217H120.067V18.7008C120.067 17.2091 121.171 16.4717 122.43 16.4717C123.055 16.4717 123.509 16.6009 123.726 16.6842L123.363 17.9384C123.217 17.8925 122.988 17.8175 122.667 17.8175C121.909 17.8175 121.621 18.2009 121.621 18.905V19.6217H123.338V20.8634Z" fill="white"/>
<path d="M128.717 20.8634H127V27.58H125.446V20.8634H124.217V19.6217H125.446V18.7008C125.446 17.2091 126.55 16.4717 127.809 16.4717C128.434 16.4717 128.888 16.6009 129.105 16.6842L128.742 17.9384C128.596 17.8925 128.367 17.8175 128.046 17.8175C127.288 17.8175 127 18.2009 127 18.905V19.6217H128.717V20.8634Z" fill="white"/>
<path d="M129.639 23.634C129.639 21.159 131.106 19.5132 133.347 19.5132C135.589 19.5132 137.056 21.1548 137.056 23.634C137.056 26.1131 135.589 27.7382 133.347 27.7382C131.106 27.7382 129.639 26.0965 129.639 23.634ZM135.493 23.6298C135.493 22.1048 134.81 20.8131 133.351 20.8131C131.893 20.8131 131.201 22.109 131.201 23.6298C131.201 25.1506 131.885 26.4381 133.351 26.4381C134.818 26.4381 135.493 25.159 135.493 23.6298Z" fill="white"/>
<path d="M138.776 19.6174H140.271V20.8799H140.355C140.646 20.0258 141.442 19.4966 142.376 19.4966C142.571 19.4966 142.88 19.5132 143.034 19.534V21.0174C142.909 20.9799 142.546 20.9257 142.226 20.9257C141.126 20.9257 140.326 21.6757 140.326 22.7174V27.5799H138.776V19.6216V19.6174Z" fill="white"/>
<path d="M148.559 20.8634H146.926V25.2426C146.926 26.1384 147.376 26.305 147.88 26.305C148.13 26.305 148.321 26.2592 148.426 26.2384L148.705 27.5176C148.521 27.5842 148.192 27.68 147.701 27.6842C146.48 27.7092 145.376 27.0092 145.38 25.5634V20.8634H144.213V19.6217H145.38V17.7134H146.93V19.6217H148.563V20.8634H148.559Z" fill="white"/>
</svg>
