<svg width="189" height="42" viewBox="0 0 189 42" fill="none" xmlns="http://www.w3.org/2000/svg">
<path d="M167.501 0.0961914H21.6673C10.1614 0.0961914 0.833984 9.42359 0.833984 20.9295C0.833984 32.4355 10.1614 41.7629 21.6673 41.7629H167.501C179.007 41.7629 188.334 32.4355 188.334 20.9295C188.334 9.42359 179.007 0.0961914 167.501 0.0961914Z" fill="#02B14F"/>
<path d="M41.4868 17.7793C40.1827 17.7793 39.3577 18.4459 39.3577 19.3501C39.3535 20.3668 40.4577 20.7543 41.2869 20.9668L42.3244 21.2376C43.6702 21.5709 45.3786 22.3084 45.3786 24.2209C45.3786 26.0209 43.9452 27.3293 41.4494 27.3293C38.9535 27.3293 37.5827 26.1417 37.4785 24.2209H39.0827C39.1744 25.3751 40.2035 25.9251 41.4368 25.9251C42.7993 25.9251 43.791 25.2418 43.791 24.2043C43.791 23.2627 42.916 22.8876 41.7785 22.5876L40.5244 22.2459C38.8202 21.7834 37.7619 20.9209 37.7619 19.4418C37.7619 17.6126 39.3952 16.396 41.5244 16.396C43.6536 16.396 45.1827 17.6292 45.2286 19.3292H43.6827C43.5702 18.3501 42.7035 17.7793 41.4868 17.7793Z" fill="white"/>
<path d="M48.7023 27.1501H47.1523V16.5376H48.6815V20.4876H48.7815C49.1565 19.6293 49.9023 19.0876 51.1398 19.0876C52.7773 19.0876 53.8648 20.1043 53.8648 22.0876V27.1501H52.3148V22.2751C52.3148 21.1084 51.6773 20.4293 50.6106 20.4293C49.544 20.4293 48.7023 21.1543 48.7023 22.4252V27.1501Z" fill="white"/>
<path d="M55.5628 24.9043C55.5628 23.096 57.1086 22.7002 58.6128 22.5252C60.042 22.3585 60.6253 22.371 60.6253 21.8043V21.7668C60.6253 20.8668 60.1128 20.3418 59.1128 20.3418C58.1128 20.3418 57.492 20.8876 57.2628 21.4501L55.8045 21.1168C56.3211 19.6668 57.6503 19.0835 59.0878 19.0835C60.3503 19.0835 62.1753 19.546 62.1753 21.8626V27.1459H60.6628V26.0585H60.6003C60.3044 26.6543 59.5628 27.321 58.2461 27.321C56.7336 27.321 55.5586 26.4626 55.5586 24.896L55.5628 24.9043ZM60.6294 24.2835V23.2585C60.4044 23.4793 59.2128 23.6168 58.7128 23.6835C57.817 23.8043 57.0794 24.1002 57.0794 24.9252C57.0794 25.6918 57.7128 26.0876 58.5878 26.0876C59.8794 26.0876 60.6294 25.2293 60.6294 24.2835Z" fill="white"/>
<path d="M64.2363 19.1917H65.7321V20.4542H65.8155C66.1071 19.6 66.903 19.0708 67.8363 19.0708C68.0322 19.0708 68.3405 19.0874 68.4946 19.1082V20.5916C68.3696 20.5541 68.0071 20.4999 67.6863 20.4999C66.5863 20.4999 65.7863 21.25 65.7863 22.2916V27.1541H64.2363V19.1958V19.1917Z" fill="white"/>
<path d="M69.1914 23.2251C69.1914 20.7793 70.6539 19.0918 72.8706 19.0918C74.6747 19.0918 76.3955 20.2167 76.3955 23.0917V23.6418H70.7372C70.7789 25.1751 71.6705 26.0376 72.9955 26.0376C73.8747 26.0376 74.5497 25.6543 74.8289 24.9043L76.2955 25.1667C75.9414 26.4626 74.7164 27.3168 72.9789 27.3168C70.6331 27.3168 69.1914 25.7001 69.1914 23.2293V23.2251ZM74.8747 22.4792C74.8705 21.2626 74.0831 20.3709 72.8789 20.3709C71.6747 20.3709 70.7997 21.3501 70.7372 22.4792H74.8705H74.8747Z" fill="white"/>
<path d="M85.6916 20.4376H84.0582V24.8168C84.0582 25.7126 84.5082 25.8792 85.0124 25.8792C85.2624 25.8792 85.454 25.8334 85.5582 25.8126L85.8374 27.0918C85.654 27.1584 85.3249 27.2542 84.8332 27.2584C83.6124 27.2834 82.5082 26.5835 82.5124 25.1376V20.4376H81.3457V19.196H82.5124V17.2876H84.0624V19.196H85.6957V20.4376H85.6916Z" fill="white"/>
<path d="M89.1125 27.1501H87.5625V16.5376H89.0916V20.4876H89.1917C89.5667 19.6293 90.3125 19.0876 91.55 19.0876C93.1875 19.0876 94.275 20.1043 94.275 22.0876V27.1501H92.725V22.2751C92.725 21.1084 92.0875 20.4293 91.0208 20.4293C89.9541 20.4293 89.1125 21.1543 89.1125 22.4252V27.1501Z" fill="white"/>
<path d="M96.1445 17.0415C96.1445 16.5331 96.5862 16.1123 97.1237 16.1123C97.6612 16.1123 98.1028 16.5331 98.1028 17.0415C98.1028 17.5498 97.657 17.9623 97.1237 17.9623C96.5904 17.9623 96.1445 17.5456 96.1445 17.0415ZM96.3404 19.1915H97.8903V27.1498H96.3404V19.1915Z" fill="white"/>
<path d="M104.534 21.3832C104.35 20.8499 103.909 20.3165 102.942 20.3165C102.063 20.3165 101.396 20.7499 101.404 21.3624C101.4 21.8999 101.779 22.1957 102.654 22.4041L103.917 22.6957C105.379 23.0332 106.092 23.729 106.092 24.8498C106.092 26.2915 104.759 27.3124 102.838 27.3124C101.05 27.3124 99.8794 26.5207 99.6211 25.1082L101.117 24.879C101.304 25.6624 101.9 26.0624 102.825 26.0624C103.842 26.0624 104.5 25.579 104.5 24.9623C104.5 24.4665 104.142 24.1249 103.375 23.954L102.029 23.6582C100.538 23.3249 99.8545 22.5749 99.8545 21.4457C99.8545 20.0374 101.129 19.0874 102.925 19.0874C104.721 19.0874 105.613 19.8957 105.938 21.1332L104.534 21.3832Z" fill="white"/>
<path d="M111.289 23.2251C111.289 20.7793 112.752 19.0918 114.968 19.0918C116.772 19.0918 118.493 20.2167 118.493 23.0917V23.6418H112.835C112.877 25.1751 113.768 26.0376 115.093 26.0376C115.972 26.0376 116.647 25.6543 116.927 24.9043L118.393 25.1667C118.039 26.4626 116.814 27.3168 115.077 27.3168C112.731 27.3168 111.289 25.7001 111.289 23.2293V23.2251ZM116.972 22.4792C116.968 21.2626 116.181 20.3709 114.977 20.3709C113.772 20.3709 112.897 21.3501 112.835 22.4792H116.968H116.972Z" fill="white"/>
<path d="M124.004 20.4376H122.287V27.1542H120.733V20.4376H119.504V19.1959H120.733V18.275C120.733 16.7833 121.837 16.0459 123.096 16.0459C123.721 16.0459 124.175 16.1751 124.391 16.2584L124.029 17.5126C123.883 17.4667 123.654 17.3917 123.333 17.3917C122.575 17.3917 122.287 17.7751 122.287 18.4793V19.1959H124.004V20.4376Z" fill="white"/>
<path d="M129.383 20.4376H127.666V27.1542H126.112V20.4376H124.883V19.1959H126.112V18.275C126.112 16.7833 127.216 16.0459 128.474 16.0459C129.099 16.0459 129.554 16.1751 129.77 16.2584L129.408 17.5126C129.262 17.4667 129.033 17.3917 128.712 17.3917C127.954 17.3917 127.666 17.7751 127.666 18.4793V19.1959H129.383V20.4376Z" fill="white"/>
<path d="M130.305 23.2082C130.305 20.7332 131.771 19.0874 134.013 19.0874C136.255 19.0874 137.721 20.729 137.721 23.2082C137.721 25.6874 136.255 27.3124 134.013 27.3124C131.771 27.3124 130.305 25.6707 130.305 23.2082ZM136.159 23.204C136.159 21.679 135.476 20.3873 134.017 20.3873C132.559 20.3873 131.867 21.6832 131.867 23.204C131.867 24.7249 132.551 26.0123 134.017 26.0123C135.484 26.0123 136.159 24.7332 136.159 23.204Z" fill="white"/>
<path d="M139.441 19.1917H140.937V20.4542H141.021C141.312 19.6 142.108 19.0708 143.041 19.0708C143.237 19.0708 143.546 19.0874 143.7 19.1082V20.5916C143.575 20.5541 143.212 20.4999 142.891 20.4999C141.791 20.4999 140.991 21.25 140.991 22.2916V27.1541H139.441V19.1958V19.1917Z" fill="white"/>
<path d="M149.225 20.4376H147.591V24.8168C147.591 25.7126 148.041 25.8792 148.546 25.8792C148.796 25.8792 148.987 25.8334 149.091 25.8126L149.371 27.0918C149.187 27.1584 148.858 27.2542 148.366 27.2584C147.146 27.2834 146.041 26.5835 146.046 25.1376V20.4376H144.879V19.196H146.046V17.2876H147.596V19.196H149.229V20.4376H149.225Z" fill="white"/>
</svg>
