<svg width="225" height="59" viewBox="0 0 225 59" fill="none" xmlns="http://www.w3.org/2000/svg">
<path d="M195.993 0.584473H29.8303C13.8118 0.584473 0.826172 13.5701 0.826172 29.5887C0.826172 45.6072 13.8118 58.5929 29.8303 58.5929H195.993C212.011 58.5929 224.997 45.6072 224.997 29.5887C224.997 13.5701 212.011 0.584473 195.993 0.584473Z" fill="#A0D92A"/>
<path d="M38.3228 16.6016C37.0186 16.6016 36.1936 17.2683 36.1936 18.1725C36.1895 19.1891 37.2936 19.5766 38.1228 19.7891L39.1603 20.0599C40.5061 20.3932 42.2144 21.1308 42.2144 23.0433C42.2144 24.8433 40.7811 26.1516 38.2853 26.1516C35.7895 26.1516 34.4186 24.9641 34.3145 23.0433H35.9186C36.0103 24.1974 37.0395 24.7474 38.2728 24.7474C39.6353 24.7474 40.627 24.0641 40.627 23.0266C40.627 22.0849 39.7519 21.7099 38.6144 21.4099L37.3603 21.0683C35.6561 20.6058 34.5978 19.7433 34.5978 18.2641C34.5978 16.435 36.2311 15.2183 38.3603 15.2183C40.4894 15.2183 42.0186 16.4516 42.0644 18.1516H40.5186C40.4061 17.1724 39.5395 16.6016 38.3228 16.6016Z" fill="#005339"/>
<path d="M45.5383 25.9724H43.9883V15.3599H45.5175V19.3099H45.6175C45.9925 18.4515 46.7383 17.9098 47.9758 17.9098C49.6133 17.9098 50.7008 18.9265 50.7008 20.9098V25.9724H49.1508V21.0973C49.1508 19.9306 48.5133 19.2515 47.4466 19.2515C46.38 19.2515 45.5383 19.9765 45.5383 21.2473V25.9724Z" fill="#005339"/>
<path d="M52.3987 23.7217C52.3987 21.9134 53.9445 21.5175 55.4487 21.3425C56.8778 21.1759 57.4612 21.1884 57.4612 20.6217V20.5842C57.4612 19.6842 56.9487 19.1592 55.9487 19.1592C54.9487 19.1592 54.3279 19.705 54.0987 20.2675L52.6404 19.9343C53.157 18.4843 54.4862 17.9009 55.9237 17.9009C57.1862 17.9009 59.0112 18.3633 59.0112 20.68V25.9634H57.4987V24.8759H57.4362C57.1404 25.4717 56.3987 26.1384 55.082 26.1384C53.5695 26.1384 52.3945 25.28 52.3945 23.7134L52.3987 23.7217ZM57.4653 23.1009V22.0759C57.2403 22.2967 56.0487 22.4342 55.5487 22.5009C54.6528 22.6217 53.9154 22.9176 53.9154 23.7426C53.9154 24.5092 54.5487 24.9051 55.4237 24.9051C56.7154 24.9051 57.4653 24.0467 57.4653 23.1009Z" fill="#005339"/>
<path d="M61.0684 18.0139H62.5642V19.2764H62.6475C62.9392 18.4223 63.735 17.8931 64.6684 17.8931C64.8642 17.8931 65.1725 17.9098 65.3267 17.9306V19.414C65.2017 19.3765 64.8392 19.3223 64.5184 19.3223C63.4184 19.3223 62.6183 20.0722 62.6183 21.1139V25.9765H61.0684V18.0181V18.0139Z" fill="#005339"/>
<path d="M66.0273 22.043C66.0273 19.5971 67.4898 17.9097 69.7065 17.9097C71.5107 17.9097 73.2315 19.0347 73.2315 21.9097V22.4596H67.5732C67.6148 23.993 68.5065 24.8555 69.8315 24.8555C70.7107 24.8555 71.3857 24.4721 71.6649 23.7221L73.1315 23.9847C72.7774 25.2805 71.5523 26.1347 69.8148 26.1347C67.469 26.1347 66.0273 24.518 66.0273 22.0471V22.043ZM71.7107 21.2972C71.7065 20.0806 70.919 19.1889 69.7148 19.1889C68.5107 19.1889 67.6357 20.1681 67.5732 21.2972H71.7065H71.7107Z" fill="#005339"/>
<path d="M78.7355 28.7843L79.1064 27.5135C79.9564 27.7468 80.5105 27.6593 80.9063 26.601L81.098 26.0718L78.1855 18.0093H79.8439L81.8605 24.1843H81.9438L83.9605 18.0093H85.623L82.3439 27.0302C81.8814 28.2843 81.073 28.9509 79.7939 28.9509C79.3272 28.9509 78.923 28.8635 78.7355 28.7802V28.7843Z" fill="#005339"/>
<path d="M86.4355 22.0306C86.4355 19.5556 87.9022 17.9097 90.1439 17.9097C92.3856 17.9097 93.8522 19.5514 93.8522 22.0306C93.8522 24.5097 92.3856 26.1347 90.1439 26.1347C87.9022 26.1347 86.4355 24.4931 86.4355 22.0306ZM92.2897 22.0264C92.2897 20.5014 91.6064 19.2097 90.1481 19.2097C88.6897 19.2097 87.998 20.5056 87.998 22.0264C87.998 23.5472 88.6814 24.8347 90.1481 24.8347C91.6147 24.8347 92.2897 23.5556 92.2897 22.0264Z" fill="#005339"/>
<path d="M100.616 18.0142H102.17V25.9725H100.645V24.5933H100.562C100.195 25.4433 99.3787 26.0767 98.1828 26.0767C96.6537 26.0767 95.5703 25.0516 95.5703 23.0766V18.0142H97.1203V22.8891C97.1203 23.9725 97.7828 24.6683 98.7411 24.6683C99.612 24.6683 100.616 24.0266 100.612 22.6725V18.0142H100.616Z" fill="#005339"/>
<path d="M104.242 18.0139H105.738V19.2764H105.821C106.113 18.4223 106.909 17.8931 107.842 17.8931C108.038 17.8931 108.346 17.9098 108.501 17.9306V19.414C108.376 19.3765 108.013 19.3223 107.692 19.3223C106.592 19.3223 105.792 20.0722 105.792 21.1139V25.9765H104.242V18.0181V18.0139Z" fill="#005339"/>
<path d="M118.268 20.2055C118.085 19.6722 117.643 19.1388 116.676 19.1388C115.797 19.1388 115.13 19.5722 115.139 20.1847C115.135 20.7222 115.514 21.018 116.389 21.2263L117.651 21.518C119.114 21.8555 119.826 22.5514 119.826 23.6722C119.826 25.1139 118.493 26.1347 116.572 26.1347C114.785 26.1347 113.614 25.343 113.355 23.9305L114.851 23.7013C115.039 24.4846 115.635 24.8847 116.56 24.8847C117.576 24.8847 118.235 24.4014 118.235 23.7847C118.235 23.2889 117.876 22.9471 117.11 22.7763L115.764 22.4805C114.272 22.1472 113.589 21.3971 113.589 20.268C113.589 18.8596 114.864 17.9097 116.66 17.9097C118.455 17.9097 119.347 18.718 119.672 19.9555L118.268 20.2055Z" fill="#005339"/>
<path d="M126.563 18.0142H128.118V25.9725H126.593V24.5933H126.509C126.143 25.4433 125.326 26.0767 124.13 26.0767C122.601 26.0767 121.518 25.0516 121.518 23.0766V18.0142H123.068V22.8891C123.068 23.9725 123.73 24.6683 124.688 24.6683C125.559 24.6683 126.563 24.0266 126.559 22.6725V18.0142H126.563Z" fill="#005339"/>
<path d="M130.193 18.0138H131.706V19.3055H131.835C132.11 18.8139 132.643 17.9097 134.118 17.9097C136.039 17.9097 137.46 19.4264 137.46 22.0097C137.46 24.593 136.06 26.1305 134.135 26.1305C132.685 26.1305 132.114 25.2431 131.835 24.7347H131.743V28.9597H130.193V18.018V18.0138ZM133.789 24.8055C135.173 24.8055 135.898 23.5889 135.898 21.993C135.898 20.3972 135.193 19.2263 133.789 19.2263C132.385 19.2263 131.71 20.3305 131.71 21.993C131.71 23.6555 132.456 24.8055 133.789 24.8055Z" fill="#005339"/>
<path d="M139.195 18.0138H140.708V19.3055H140.837C141.112 18.8139 141.645 17.9097 143.12 17.9097C145.041 17.9097 146.462 19.4264 146.462 22.0097C146.462 24.593 145.062 26.1305 143.137 26.1305C141.687 26.1305 141.116 25.2431 140.837 24.7347H140.745V28.9597H139.195V18.018V18.0138ZM142.791 24.8055C144.174 24.8055 144.9 23.5889 144.9 21.993C144.9 20.3972 144.195 19.2263 142.791 19.2263C141.387 19.2263 140.712 20.3305 140.712 21.993C140.712 23.6555 141.458 24.8055 142.791 24.8055Z" fill="#005339"/>
<path d="M147.836 22.0306C147.836 19.5556 149.303 17.9097 151.544 17.9097C153.786 17.9097 155.253 19.5514 155.253 22.0306C155.253 24.5097 153.786 26.1347 151.544 26.1347C149.303 26.1347 147.836 24.4931 147.836 22.0306ZM153.69 22.0264C153.69 20.5014 153.007 19.2097 151.548 19.2097C150.09 19.2097 149.398 20.5056 149.398 22.0264C149.398 23.5472 150.082 24.8347 151.548 24.8347C153.015 24.8347 153.69 23.5556 153.69 22.0264Z" fill="#005339"/>
<path d="M156.977 18.0139H158.472V19.2764H158.556C158.847 18.4223 159.643 17.8931 160.577 17.8931C160.772 17.8931 161.081 17.9098 161.235 17.9306V19.414C161.11 19.3765 160.747 19.3223 160.427 19.3223C159.327 19.3223 158.527 20.0722 158.527 21.1139V25.9765H156.977V18.0181V18.0139Z" fill="#005339"/>
<path d="M166.76 19.256H165.127V23.6352C165.127 24.531 165.577 24.6977 166.081 24.6977C166.331 24.6977 166.522 24.6519 166.627 24.631L166.906 25.9101C166.722 25.9768 166.393 26.0727 165.902 26.0769C164.681 26.1019 163.577 25.4018 163.581 23.956V19.256H162.414V18.0143H163.581V16.106H165.131V18.0143H166.764V19.256H166.76Z" fill="#005339"/>
<path d="M176.117 19.2555H174.4V25.9722H172.846V19.2555H171.617V18.0138H172.846V17.093C172.846 15.6013 173.951 14.8638 175.209 14.8638C175.834 14.8638 176.288 14.9929 176.505 15.0763L176.142 16.3304C175.996 16.2846 175.767 16.2096 175.446 16.2096C174.688 16.2096 174.4 16.593 174.4 17.2971V18.0138H176.117V19.2555Z" fill="#005339"/>
<path d="M177.035 22.0306C177.035 19.5556 178.502 17.9097 180.743 17.9097C182.985 17.9097 184.452 19.5514 184.452 22.0306C184.452 24.5097 182.985 26.1347 180.743 26.1347C178.502 26.1347 177.035 24.4931 177.035 22.0306ZM182.889 22.0264C182.889 20.5014 182.206 19.2097 180.748 19.2097C179.289 19.2097 178.598 20.5056 178.598 22.0264C178.598 23.5472 179.281 24.8347 180.748 24.8347C182.214 24.8347 182.889 23.5556 182.889 22.0264Z" fill="#005339"/>
<path d="M186.176 18.0139H187.672V19.2764H187.755C188.047 18.4223 188.842 17.8931 189.776 17.8931C189.972 17.8931 190.28 17.9098 190.434 17.9306V19.414C190.309 19.3765 189.947 19.3223 189.626 19.3223C188.526 19.3223 187.726 20.0722 187.726 21.1139V25.9765H186.176V18.0181V18.0139Z" fill="#005339"/>
<path d="M40.2521 37.2677H38.6188V41.6469C38.6188 42.5427 39.0688 42.7094 39.5729 42.7094C39.8229 42.7094 40.0146 42.6636 40.1187 42.6428L40.3979 43.9219C40.2146 43.9885 39.8854 44.0844 39.3937 44.0886C38.1729 44.1136 37.0688 43.4135 37.0729 41.9677V37.2677H35.9062V36.026H37.0729V34.1177H38.6229V36.026H40.2563V37.2677H40.2521Z" fill="#005339"/>
<path d="M43.6711 43.985H42.1211V33.3726H43.6503V37.3226H43.7503C44.1253 36.4642 44.8711 35.9225 46.1086 35.9225C47.7461 35.9225 48.8336 36.9392 48.8336 38.9225V43.985H47.2836V39.1101C47.2836 37.9434 46.6461 37.2642 45.5794 37.2642C44.5128 37.2642 43.6711 37.9892 43.6711 39.26V43.985Z" fill="#005339"/>
<path d="M50.543 40.0557C50.543 37.6098 52.0055 35.9224 54.2222 35.9224C56.0263 35.9224 57.7472 37.0474 57.7472 39.9224V40.4723H52.0888C52.1305 42.0057 53.0221 42.8682 54.3471 42.8682C55.2263 42.8682 55.9013 42.4848 56.1805 41.7348L57.6472 41.9974C57.293 43.2932 56.068 44.1474 54.3305 44.1474C51.9847 44.1474 50.543 42.5307 50.543 40.0598V40.0557ZM56.2263 39.3099C56.2221 38.0932 55.4346 37.2016 54.2305 37.2016C53.0263 37.2016 52.1513 38.1807 52.0888 39.3099H56.2221H56.2263Z" fill="#005339"/>
<path d="M67.8719 34.6886C66.0719 34.6886 64.701 36.1011 64.701 38.6719C64.701 41.2428 66.0635 42.6677 67.9344 42.6677C69.6344 42.6677 70.7635 41.5844 70.801 39.8761H68.1802V38.5553H72.3511V39.7635C72.3511 42.4427 70.5094 44.1302 67.9344 44.1302C65.0594 44.1302 63.1094 42.0428 63.1094 38.6844C63.1094 35.3261 65.1136 33.2261 67.8594 33.2261C70.1511 33.2261 71.9177 34.6552 72.276 36.7219H70.6344C70.2344 35.4635 69.2802 34.6844 67.8719 34.6844V34.6886Z" fill="#005339"/>
<path d="M74.252 36.0266H75.7478V37.2891H75.8311C76.1228 36.435 76.9186 35.9058 77.852 35.9058C78.0478 35.9058 78.3561 35.9225 78.5103 35.9433V37.4267C78.3853 37.3892 78.0228 37.335 77.702 37.335C76.602 37.335 75.8019 38.0849 75.8019 39.1266V43.9892H74.252V36.0308V36.0266Z" fill="#005339"/>
<path d="M79.2051 40.0557C79.2051 37.6098 80.6676 35.9224 82.8842 35.9224C84.6884 35.9224 86.4093 37.0474 86.4093 39.9224V40.4723H80.7509C80.7926 42.0057 81.6842 42.8682 83.0092 42.8682C83.8884 42.8682 84.5634 42.4848 84.8426 41.7348L86.3093 41.9974C85.9551 43.2932 84.7301 44.1474 82.9926 44.1474C80.6467 44.1474 79.2051 42.5307 79.2051 40.0598V40.0557ZM84.8884 39.3099C84.8843 38.0932 84.0967 37.2016 82.8926 37.2016C81.6884 37.2016 80.8134 38.1807 80.7509 39.3099H84.8842H84.8884Z" fill="#005339"/>
<path d="M87.7734 40.0557C87.7734 37.6098 89.236 35.9224 91.4526 35.9224C93.2568 35.9224 94.9776 37.0474 94.9776 39.9224V40.4723H89.3193C89.361 42.0057 90.2526 42.8682 91.5776 42.8682C92.4568 42.8682 93.1318 42.4848 93.4109 41.7348L94.8776 41.9974C94.5235 43.2932 93.2985 44.1474 91.561 44.1474C89.2151 44.1474 87.7734 42.5307 87.7734 40.0598V40.0557ZM93.4568 39.3099C93.4526 38.0932 92.6651 37.2016 91.461 37.2016C90.2568 37.2016 89.3818 38.1807 89.3193 39.3099H93.4526H93.4568Z" fill="#005339"/>
<path d="M98.2433 43.9849H96.6934V36.0265H98.1809V37.3224H98.2809C98.6476 36.4766 99.4309 35.9224 100.627 35.9224C102.256 35.9224 103.335 36.9515 103.335 38.9223V43.9849H101.785V39.1099C101.785 37.9558 101.148 37.264 100.098 37.264C99.0475 37.264 98.2433 37.989 98.2433 39.2599V43.9849Z" fill="#005339"/>
<path d="M109.395 33.3726H113.178C115.645 33.3726 116.853 34.8559 116.853 36.8101C116.853 38.7642 115.636 40.2559 113.174 40.2559H110.999V43.985H109.399V33.3726H109.395ZM113.028 38.8976C114.595 38.8976 115.24 38.0101 115.24 36.8101C115.24 35.6101 114.595 34.7475 113.007 34.7475H110.995V38.8976H113.028Z" fill="#005339"/>
<path d="M118.59 36.0266H120.086V37.2891H120.169C120.461 36.435 121.257 35.9058 122.19 35.9058C122.386 35.9058 122.694 35.9225 122.848 35.9433V37.4267C122.723 37.3892 122.361 37.335 122.04 37.335C120.94 37.335 120.14 38.0849 120.14 39.1266V43.9892H118.59V36.0308V36.0266Z" fill="#005339"/>
<path d="M123.543 40.0393C123.543 37.5643 125.01 35.9185 127.251 35.9185C129.493 35.9185 130.96 37.5602 130.96 40.0393C130.96 42.5185 129.493 44.1435 127.251 44.1435C125.01 44.1435 123.543 42.5018 123.543 40.0393ZM129.397 40.0352C129.397 38.5102 128.714 37.2185 127.255 37.2185C125.797 37.2185 125.105 38.5143 125.105 40.0352C125.105 41.556 125.789 42.8435 127.255 42.8435C128.722 42.8435 129.397 41.5643 129.397 40.0352Z" fill="#005339"/>
<path d="M132.64 45.331L133.973 44.781C134.248 45.2351 134.752 45.8852 136.04 45.8852C137.215 45.8852 138.073 45.3477 138.073 44.0977V42.531H137.973C137.694 43.0393 137.127 43.8643 135.669 43.8643C133.79 43.8643 132.344 42.5101 132.344 39.9726C132.344 37.4351 133.76 35.9185 135.681 35.9185C137.165 35.9185 137.715 36.8185 137.985 37.3143H138.098V36.0226H139.615V44.156C139.615 46.2018 138.052 47.131 136.023 47.131C134.123 47.131 133.06 46.3018 132.64 45.3268V45.331ZM138.085 39.9518C138.085 38.3393 137.36 37.2352 136.006 37.2352C134.652 37.2352 133.902 38.4226 133.902 39.9518C133.902 41.4809 134.623 42.5768 136.006 42.5768C137.39 42.5768 138.085 41.5934 138.085 39.9518Z" fill="#005339"/>
<path d="M141.688 36.0266H143.183V37.2891H143.267C143.558 36.435 144.354 35.9058 145.288 35.9058C145.483 35.9058 145.792 35.9225 145.946 35.9433V37.4267C145.821 37.3892 145.458 37.335 145.138 37.335C144.038 37.335 143.238 38.0849 143.238 39.1266V43.9892H141.688V36.0308V36.0266Z" fill="#005339"/>
<path d="M146.844 41.7344C146.844 39.9261 148.39 39.5302 149.894 39.3552C151.323 39.1886 151.907 39.2011 151.907 38.6344V38.5969C151.907 37.6969 151.394 37.1719 150.394 37.1719C149.394 37.1719 148.773 37.7178 148.544 38.2803L147.086 37.947C147.602 36.497 148.932 35.9136 150.369 35.9136C151.632 35.9136 153.457 36.3761 153.457 38.6928V43.9761H151.944V42.8886H151.882C151.586 43.4844 150.844 44.1511 149.527 44.1511C148.015 44.1511 146.84 43.2927 146.84 41.7261L146.844 41.7344ZM151.911 41.1136V40.0886C151.686 40.3094 150.494 40.4469 149.994 40.5136C149.098 40.6344 148.361 40.9302 148.361 41.7552C148.361 42.5219 148.994 42.9178 149.869 42.9178C151.161 42.9178 151.911 42.0594 151.911 41.1136Z" fill="#005339"/>
<path d="M155.52 36.0265H157.007V37.3224H157.107C157.44 36.4474 158.22 35.9224 159.274 35.9224C160.328 35.9224 161.065 36.4516 161.415 37.3224H161.499C161.882 36.4724 162.745 35.9224 163.886 35.9224C165.328 35.9224 166.34 36.8307 166.34 38.6474V43.9849H164.79V38.7933C164.79 37.7141 164.115 37.2598 163.299 37.2598C162.29 37.2598 161.703 37.9557 161.703 38.914V43.9849H160.157V38.6933C160.157 37.8266 159.561 37.2598 158.703 37.2598C157.845 37.2598 157.07 38.0057 157.07 39.0807V43.9891H155.52V36.0307V36.0265Z" fill="#005339"/>
<path d="M168.402 36.0265H169.89V37.3224H169.99C170.323 36.4474 171.102 35.9224 172.157 35.9224C173.211 35.9224 173.948 36.4516 174.298 37.3224H174.382C174.765 36.4724 175.627 35.9224 176.769 35.9224C178.211 35.9224 179.223 36.8307 179.223 38.6474V43.9849H177.673V38.7933C177.673 37.7141 176.998 37.2598 176.182 37.2598C175.173 37.2598 174.586 37.9557 174.586 38.914V43.9849H173.04V38.6933C173.04 37.8266 172.444 37.2598 171.586 37.2598C170.727 37.2598 169.952 38.0057 169.952 39.0807V43.9891H168.402V36.0307V36.0265Z" fill="#005339"/>
<path d="M180.926 40.0557C180.926 37.6098 182.388 35.9224 184.605 35.9224C186.409 35.9224 188.13 37.0474 188.13 39.9224V40.4723H182.472C182.513 42.0057 183.405 42.8682 184.73 42.8682C185.609 42.8682 186.284 42.4848 186.563 41.7348L188.03 41.9974C187.676 43.2932 186.451 44.1474 184.713 44.1474C182.367 44.1474 180.926 42.5307 180.926 40.0598V40.0557ZM186.609 39.3099C186.605 38.0932 185.817 37.2016 184.613 37.2016C183.409 37.2016 182.534 38.1807 182.472 39.3099H186.605H186.609Z" fill="#005339"/>
</svg>
